<?xml version="1.0" ?><!-- Generator: Adobe Illustrator 28.0.0, SVG Export Plug-In . SVG Version: 6.00 Build 0)  --><svg xmlns="http://www.w3.org/2000/svg" xmlns:xlink="http://www.w3.org/1999/xlink" fill="currentColor" id="Слой_1" version="1.0" viewBox="0 0 384 384" x="0px" xml:space="preserve" y="0px">
<g fill="currentColor">
<path d="M192.4,124.1c17.9,0,35.7,0,53.6,0.1c1.4,0,3.3,0.3,4.2,1.2c17.5,18,35.2,35.9,50.1,56.3c14.3,19.5,25,40.7,29.1,64.8   c2.8,16.7,3.8,33.5-1.7,49.9c-7.1,21.2-22,35.3-41.5,45.1c-16.7,8.4-34.7,12.8-53.1,15.3c-23.3,3.2-46.8,3.6-70.2,1.3   c-23.9-2.3-47.3-7.1-68.6-19c-21-11.6-35.5-28.5-39.8-52.6c-3.3-18.3-1-36.5,4.1-54.3c6.4-22.4,18-42.1,32.9-59.7   c13.7-16.1,28.3-31.3,42.6-46.8c1-1,2.9-1.6,4.4-1.6C156.5,124,174.5,124.1,192.4,124.1z M182.1,176.6c-4.8,2.8-9.5,4.8-13.4,7.9   c-9.8,7.7-13.6,18.1-11.7,30.4c1.9,12.3,9.5,19.6,21,23.4c2.2,0.7,4.5,1.4,6.8,1.9c5.4,1.4,11,2.4,16.3,4.2   c6.4,2.1,8.7,8.2,5.8,14.4c-2.7,5.8-10.2,9.1-17.8,7.8c-7.3-1.2-11.5-5.7-12.3-12.6c-0.6-5.8-5-9.9-10.5-9.7   c-5.7,0.2-9.7,4.7-9.7,10.8c0.1,12.9,8.9,24.7,22.6,29.7c2.4,0.9,3.5,2,3.1,4.5c-0.1,0.7,0,1.3,0,2c0.3,5.3,4.2,9.4,9.3,9.7   c5.2,0.4,10.6-3.1,10.5-8.2c-0.2-6.1,2.6-8.5,7.6-9.8c0.3-0.1,0.6-0.3,0.9-0.4c12-6.4,18.6-18.6,17.4-32.1   c-1.2-12.9-8.7-21.6-22.5-25.9c-2.3-0.7-4.8-1.3-7.1-1.9c-4.9-1.2-9.9-2.2-14.6-3.8c-6.7-2.2-9-8.6-5.7-14.9   c2.9-5.5,10.4-8.7,17.5-7.4c7.4,1.3,11.6,5.7,12.4,12.9c0.6,5.7,5.3,9.9,10.7,9.5c5.6-0.4,9.6-4.8,9.5-10.6   c-0.2-9.8-4.3-17.9-12-23.8c-4-3.1-8.8-5.2-13.5-7.9c-0.8-10.2-3.8-14.6-10.3-14.5C185.7,162.2,182.7,166.6,182.1,176.6z" fill="currentColor"/>
<path d="M192.1,103.9c-15.5,0-31-0.1-46.5,0.1c-2.4,0-3.8-0.6-5-2.8C130.9,83,121,64.9,111.2,46.8c-4.1-7.7-1.5-13.8,6.7-16.5   c20.8-6.7,41.8-5.9,62.8-1.3c12.5,2.7,24.9,5.7,37.4,8.1c14.2,2.6,28.1,1.2,41.4-5c5.4-2.5,9.7-1.9,13,1.5c3.4,3.5,3.6,8,0.8,13.3   c-9.8,18.1-19.7,36.3-29.4,54.4c-1.1,2.1-2.4,2.7-4.7,2.7C223.5,103.8,207.8,103.9,192.1,103.9z" fill="currentColor"/>
</g>
</svg>