<?xml version="1.0" encoding="utf-8"?>
<!-- Generator: Adobe Illustrator 28.0.0, SVG Export Plug-In . SVG Version: 6.00 Build 0)  --><svg fill="currentColor" id="_Слой_2" version="1.0" viewBox="0 0 316.4 316.5" x="0px" xml:space="preserve" xmlns="http://www.w3.org/2000/svg" xmlns:xlink="http://www.w3.org/1999/xlink" y="0px">
<path d="M59,57.3c2.5-11.2,7.1-21.6,14.6-30.5C87.9,9.6,106.4,0.4,128.8,0.2c38.6-0.3,77.3-0.3,115.9,0C281.1,0.5,310,26,315.6,62  c0.6,3.8,0.7,7.6,0.8,11.4c0,66.1,0.1,132.3,0,198.4c0,22.1-13.9,39.5-35,43.7c-3.2,0.6-6.5,0.9-9.7,0.9c-66.1,0-132.3,0.1-198.4,0  c-37.1,0-66.3-24.8-72.4-61.3c-0.6-3.7-0.8-7.6-0.8-11.4C0,201.2,0,158.6,0.1,116.1C0.2,87.8,18.7,64.8,45.9,59  C50,58.1,54.3,57.9,59,57.3L59,57.3z M89,57.8h4.7c35.3,0,70.5-0.1,105.8,0.1c5.6,0,11.3,0.5,16.6,1.9c25.7,6.7,42.6,29.2,42.7,56.5  c0.1,51.3,0,102.6,0,153.9c0,1.5,0,2.9,0.1,4.4c0.9,8,7.4,13.6,15.2,13.1c7.6-0.4,13.5-6.6,13.5-14.5c0-67.4,0.1-134.7,0-202.1  c-0.1-22.8-19.2-41.9-42-42c-38.9-0.2-77.7-0.1-116.6,0c-9.7,0-18.5,3.3-26.1,9.3C96.5,43.3,91.9,49.5,89,57.8L89,57.8z   M129.4,201.4H72.8c-8.8,0-15.1,5.9-15.2,14.1c-0.1,8.3,6,14.6,14.7,14.6c38.1,0.1,76.1,0.1,114.2,0c4.5,0,8.4-1.6,11.3-5.1  c3.7-4.6,4.6-9.7,2.2-15.1c-2.6-5.7-7.2-8.5-13.4-8.5H129.4L129.4,201.4z M129.5,172.6c19,0,37.9,0.1,56.9,0  c8.5,0,14.8-6.1,14.9-14.1c0.1-7.7-5.8-14.4-13.5-14.4c-38.9-0.1-77.9-0.1-116.9,0h-0.7c-6.6,0.6-12.1,6.2-12.6,12.9  c-0.6,8.9,5.5,15.6,14.6,15.6C91.3,172.7,110.4,172.6,129.5,172.6L129.5,172.6z" fill="currentColor"/>
</svg>