<?xml version="1.0" encoding="utf-8"?>
<!-- Generator: Adobe Illustrator 28.0.0, SVG Export Plug-In . SVG Version: 6.00 Build 0)  --><svg fill="currentColor" id="Слой_1" version="1.0" viewBox="0 0 384 384" x="0px" xml:space="preserve" xmlns="http://www.w3.org/2000/svg" xmlns:xlink="http://www.w3.org/1999/xlink" y="0px">
<path d="M315.5,347.5c-82.5,0-165,0-247.5,0c-0.3-0.2-0.5-0.4-0.8-0.5c-10.3-2.9-15.7-10.2-15-20.8c0.5-8.3,1.3-16.5,2-24.8  c2.1-24.5,4.3-48.9,6.4-73.3c2.2-25.2,4.3-50.3,6.6-75.5c1.2-12.8,8.5-19.3,21.4-19.3c41.4,0,82.9,0,124.3,0c27.8,0,55.6,0,83.4,0  c10.9,0,18.9,7.4,19.8,18.1c0.2,2.9,0.5,5.8,0.8,8.8c2,22.4,3.9,44.9,5.9,67.3c1.7,19.8,3.5,39.6,5.2,59.5  c1.1,13.3,2.3,26.6,3.4,39.9c0.6,7.1-2.3,12.9-8,17C321,345.5,318.1,346.3,315.5,347.5z M111.6,213.5c-0.2,0-0.4,0-0.7,0  c0.7,10.4,0.3,20.9,2.4,31c8.9,43.6,49.4,70.6,93.4,62.9c35.8-6.2,64.4-39.6,65-75.9c0.2-12.7,0.1-25.5,0-38.2c0-1.7-0.4-3.4-1-5  c-2-4.6-7.1-7.2-11.9-6.3c-5.2,1-9,5.2-9.1,10.6c-0.1,11.3,0,22.6-0.1,33.9c-0.1,4.1-0.3,8.3-1,12.4c-4.9,30.8-36.2,52.6-66.8,46.8  c-28.5-5.4-47.9-28.7-48.2-57.7c-0.1-11.6,0.1-23.2-0.1-34.9c-0.1-6.7-4.9-11.4-11.2-11.3c-6.2,0.1-10.7,4.9-10.8,11.5  C111.6,200.1,111.6,206.8,111.6,213.5z" fill="currentColor"/>
<path d="M177.8,62.5c0-6.4-0.1-12.7,0-18.9c0.1-4,2.8-6.4,6.9-6.5c6.7-0.1,13.3,0,20,0c18.8,0,37.6,0,56.4,0c5,0,7.5,2.5,7.5,7.4  c0,22.1,0,44.3,0,66.4c0,0.4-0.1,0.8-0.1,1.5c-11,0-21.9,0-33.1,0c0.6-2.8,1.4-5.6,1.9-8.4c2.2-13.8-5.7-26.6-19.1-30.4  c-12.6-3.6-25.3-6.9-38-10.3C179.4,63,178.7,62.7,177.8,62.5z" fill="currentColor"/>
<path d="M112.6,112.6c2.5-9.3,4.8-18.1,7.1-26.8c0.7-2.7,1.5-5.5,2.2-8.2c1.6-5.8,4.3-7.5,10-5.9c23.5,6.3,47,12.6,70.4,18.9  c3,0.8,6.1,1.6,9.1,2.4c4.5,1.3,6.2,4.2,5.1,8.7c-0.9,3.5-1,8.1-3.3,10.1c-2.1,1.8-6.7,0.8-10.2,0.8c-28.8,0-57.6,0-86.4,0  C115.6,112.6,114.4,112.6,112.6,112.6z" fill="currentColor"/>
</svg>