<?xml version="1.0" encoding="utf-8"?>
<!-- Generator: Adobe Illustrator 28.0.0, SVG Export Plug-In . SVG Version: 6.00 Build 0)  --><svg fill="currentColor" id="Слой_1" version="1.0" viewBox="0 0 384 384" x="0px" xml:space="preserve" xmlns="http://www.w3.org/2000/svg" xmlns:xlink="http://www.w3.org/1999/xlink" y="0px">
<path d="M102.8,197.9c46.3,56.5,132.5,55.2,177.8-0.1c2.4,2,5,3.9,7.3,6c34.1,31,50.7,69.5,49.6,115.6c-0.4,16.9-15,31.3-32.1,32.2  c-0.8,0-1.7,0.1-2.5,0.1c-74.1,0-148.2,0-222.3,0c-19.8,0-34.8-14.9-34.7-34.6c0-8.6,0.3-17.4,1.6-25.9  c5.8-36.7,23.4-66.9,51.9-90.7C100.5,199.5,101.7,198.7,102.8,197.9z" fill="currentColor"/>
<path d="M283.7,124.9c0.1,50.8-41,92.1-91.8,92.2c-50.9,0.1-92.3-41.2-92.3-92.2c0.1-50.9,41.2-92,92-92  C242.5,33,283.6,74,283.7,124.9z" fill="currentColor"/>
</svg>