<?xml version="1.0" encoding="utf-8"?>
<!-- Generator: Adobe Illustrator 28.0.0, SVG Export Plug-In . SVG Version: 6.00 Build 0)  --><svg fill="currentColor" id="Слой_1" version="1.0" viewBox="0 0 384 384" x="0px" xml:space="preserve" xmlns="http://www.w3.org/2000/svg" xmlns:xlink="http://www.w3.org/1999/xlink" y="0px">
<g fill="currentColor">
<path d="M240.9,160.3c-18.5,40.7-76.9,42.4-97.6-0.1c-1,1.8-1.9,3.3-2.8,4.9c-12.1,21.2-37.7,31.4-60.9,24.2   C55.8,182,42.2,155.8,50,131.8c6.1-19.1,13-38,19.2-57c5.7-17.2,18.5-24.5,35.6-26.1c5.2-0.5,10.5-0.8,15.7-0.8   c47.6-0.1,95.3-0.1,142.9,0.1c7.7,0,15.5,0.8,23.1,2c14,2.2,23.2,10.3,27.9,23.6c4.3,12.2,8.5,24.5,12.6,36.7   c2.1,6.1,4.1,12.3,6.2,18.4c6.3,18.7,3.2,35.7-10.9,49.7s-31.4,16-49.7,10.3c-13.5-4.2-23.4-13.1-30.1-25.4   C242,162.4,241.5,161.5,240.9,160.3z" fill="currentColor"/>
<path d="M64.2,209.2c28.7,11.6,54.9,6.9,79.5-10.4c10.2,7.8,21.5,13.1,34.2,15.4c21.8,3.9,41.7-0.6,59.7-13.3   c2.5-1.8,3.9-1.6,6.4,0.1c23.1,15.4,47.7,19.3,74,8.8c0.5-0.2,0.9-0.3,2-0.5c0.1,1.5,0.2,2.7,0.2,4c0,23.8,0,47.6,0,71.5   c0,5.6,0.4,11.3-0.6,16.8c-3.7,21.1-23.4,35.9-44.8,34.1c-2.1-0.2-4.2-0.1-6.4-0.2c-14.1-0.9-28.3,1.8-42.4-1.4   c-3.5-14.1-0.7-28.4-1.5-42.6c-0.3-4.1,0-8.2-0.1-12.3c-0.5-14.1-10.5-26.7-24.2-30.4c-19.4-5.3-39.3,9.8-39.7,30.2   c-0.3,16.5-0.1,32.9-0.1,49.4c0,5.8-1.4,7.1-7.3,7.2c-15.6,0.1-31.2,0.2-46.9,0.4c-22.6,0-42.2-18.3-42.4-40.8   c-0.3-28.1,0.1-56.1,0.2-84.2C64,210.5,64.1,210,64.2,209.2z" fill="currentColor"/>
</g>
</svg>